<svg width="512" height="512" viewBox="0 0 512 512" fill="none" xmlns="http://www.w3.org/2000/svg">
<path d="M448 341.333V170.667C447.992 163.185 446.017 155.836 442.273 149.358C438.528 142.88 433.146 137.501 426.667 133.76L277.333 48.4267C270.847 44.6819 263.49 42.7104 256 42.7104C248.51 42.7104 241.153 44.6819 234.667 48.4267L85.3333 133.76C78.8536 137.501 73.4716 142.88 69.7272 149.358C65.9828 155.836 64.0077 163.185 64 170.667V341.333C64.0077 348.815 65.9828 356.164 69.7272 362.642C73.4716 369.12 78.8536 374.499 85.3333 378.24L234.667 463.573C241.153 467.318 248.51 469.29 256 469.29C263.49 469.29 270.847 467.318 277.333 463.573L426.667 378.24C433.146 374.499 438.528 369.12 442.273 362.642C446.017 356.164 447.992 348.815 448 341.333Z" stroke="#A3E635" stroke-width="42.6667" stroke-linecap="round" stroke-linejoin="round"/>
<path d="M70.1867 149.333L256 256L441.813 149.333" stroke="#A3E635" stroke-width="42.6667" stroke-linecap="round" stroke-linejoin="round"/>
<path d="M256 469.333V256" stroke="#A3E635" stroke-width="42.6667" stroke-linecap="round" stroke-linejoin="round"/>
</svg>
